<mxfile host="65bd71144e" modified="2021-02-15T18:21:44.678Z" agent="5.0 (Windows NT 10.0; Win64; x64) AppleWebKit/537.36 (KHTML, like Gecko) Code/1.53.2 Chrome/87.0.4280.141 Electron/11.2.1 Safari/537.36" etag="pTxPJqJHDzS2QDOh2iEY" version="14.2.4" type="embed">
    <diagram id="10vba0ukYt84-Pt1_UeG" name="Page-1">
        <mxGraphModel dx="2145" dy="1184" grid="0" gridSize="10" guides="1" tooltips="1" connect="1" arrows="1" fold="1" page="1" pageScale="1" pageWidth="850" pageHeight="1100" math="0" shadow="0">
            <root>
                <mxCell id="0"/>
                <mxCell id="1" parent="0"/>
                <mxCell id="27" value="View" style="rounded=0;whiteSpace=wrap;html=1;" parent="1" vertex="1">
                    <mxGeometry x="264" y="438" width="50" height="90" as="geometry"/>
                </mxCell>
                <mxCell id="2" value="KickAss&lt;br&gt;Payouts&lt;br&gt;Backend" style="ellipse;whiteSpace=wrap;html=1;aspect=fixed;" parent="1" vertex="1">
                    <mxGeometry x="384" y="443" width="80" height="80" as="geometry"/>
                </mxCell>
                <mxCell id="5" value="Database" style="shape=cylinder3;whiteSpace=wrap;html=1;boundedLbl=1;backgroundOutline=1;size=15;" parent="1" vertex="1">
                    <mxGeometry x="634" y="443" width="52.5" height="80" as="geometry"/>
                </mxCell>
                <mxCell id="6" value="swArenaApi" style="ellipse;whiteSpace=wrap;html=1;aspect=fixed;" parent="1" vertex="1">
                    <mxGeometry x="384" y="583" width="80" height="80" as="geometry"/>
                </mxCell>
                <mxCell id="7" value="" style="endArrow=classic;html=1;entryX=0;entryY=1;entryDx=0;entryDy=0;exitX=1;exitY=1;exitDx=0;exitDy=0;startArrow=classic;startFill=1;" parent="1" target="2" edge="1">
                    <mxGeometry width="50" height="50" relative="1" as="geometry">
                        <mxPoint x="194" y="513" as="sourcePoint"/>
                        <mxPoint x="274" y="513" as="targetPoint"/>
                    </mxGeometry>
                </mxCell>
                <mxCell id="8" value="Add/remove/update user/list" style="edgeLabel;html=1;align=center;verticalAlign=middle;resizable=0;points=[];" parent="7" vertex="1" connectable="0">
                    <mxGeometry x="-0.1543" y="-2" relative="1" as="geometry">
                        <mxPoint x="19.16" y="-1.14" as="offset"/>
                    </mxGeometry>
                </mxCell>
                <mxCell id="11" value="" style="endArrow=classic;html=1;exitX=0.917;exitY=0.781;exitDx=0;exitDy=0;entryX=0;entryY=1;entryDx=0;entryDy=-15;entryPerimeter=0;exitPerimeter=0;" parent="1" source="2" target="5" edge="1">
                    <mxGeometry width="50" height="50" relative="1" as="geometry">
                        <mxPoint x="504" y="493" as="sourcePoint"/>
                        <mxPoint x="644" y="515" as="targetPoint"/>
                    </mxGeometry>
                </mxCell>
                <mxCell id="12" value="Add/remove/update user/list" style="edgeLabel;html=1;align=center;verticalAlign=middle;resizable=0;points=[];" parent="11" vertex="1" connectable="0">
                    <mxGeometry x="-0.1543" y="-2" relative="1" as="geometry">
                        <mxPoint x="14.73" y="-1.4799999999999998" as="offset"/>
                    </mxGeometry>
                </mxCell>
                <mxCell id="15" value="" style="endArrow=classic;html=1;entryX=0;entryY=0;entryDx=0;entryDy=0;exitX=0;exitY=1;exitDx=0;exitDy=0;startArrow=classic;startFill=1;" parent="1" source="2" target="6" edge="1">
                    <mxGeometry width="50" height="50" relative="1" as="geometry">
                        <mxPoint x="494.0000000000001" y="573" as="sourcePoint"/>
                        <mxPoint x="661.9800000000001" y="573" as="targetPoint"/>
                    </mxGeometry>
                </mxCell>
                <mxCell id="16" value="Provide game details based on user input" style="edgeLabel;html=1;align=center;verticalAlign=middle;resizable=0;points=[];" parent="15" vertex="1" connectable="0">
                    <mxGeometry x="-0.1543" y="-2" relative="1" as="geometry">
                        <mxPoint x="-108" y="7.01" as="offset"/>
                    </mxGeometry>
                </mxCell>
                <mxCell id="17" value="" style="endArrow=classic;html=1;exitX=0;exitY=0;exitDx=0;exitDy=0;entryX=1;entryY=0;entryDx=0;entryDy=0;startArrow=classic;startFill=1;" parent="1" source="2" edge="1">
                    <mxGeometry width="50" height="50" relative="1" as="geometry">
                        <mxPoint x="334" y="643" as="sourcePoint"/>
                        <mxPoint x="194" y="453" as="targetPoint"/>
                    </mxGeometry>
                </mxCell>
                <mxCell id="18" value="Access current data" style="edgeLabel;html=1;align=center;verticalAlign=middle;resizable=0;points=[];" parent="17" vertex="1" connectable="0">
                    <mxGeometry x="0.323" y="3" relative="1" as="geometry">
                        <mxPoint x="41.67" y="-3" as="offset"/>
                    </mxGeometry>
                </mxCell>
                <mxCell id="19" value="" style="endArrow=classic;html=1;entryX=1;entryY=0;entryDx=0;entryDy=0;" parent="1" target="2" edge="1">
                    <mxGeometry width="50" height="50" relative="1" as="geometry">
                        <mxPoint x="634" y="455" as="sourcePoint"/>
                        <mxPoint x="464" y="455" as="targetPoint"/>
                    </mxGeometry>
                </mxCell>
                <mxCell id="20" value="Provide current data" style="edgeLabel;html=1;align=center;verticalAlign=middle;resizable=0;points=[];" parent="19" vertex="1" connectable="0">
                    <mxGeometry x="0.323" y="3" relative="1" as="geometry">
                        <mxPoint x="32.5" y="-3" as="offset"/>
                    </mxGeometry>
                </mxCell>
                <mxCell id="21" value="" style="endArrow=classic;html=1;entryX=1;entryY=0;entryDx=0;entryDy=0;exitX=1;exitY=1;exitDx=0;exitDy=0;startArrow=classic;startFill=1;" parent="1" source="2" target="6" edge="1">
                    <mxGeometry width="50" height="50" relative="1" as="geometry">
                        <mxPoint x="493.99958294026044" y="523.0049917043284" as="sourcePoint"/>
                        <mxPoint x="494.29572875253814" y="606.7357287525383" as="targetPoint"/>
                    </mxGeometry>
                </mxCell>
                <mxCell id="23" value="Poll game servers for current rank data" style="edgeLabel;html=1;align=center;verticalAlign=middle;resizable=0;points=[];" parent="21" vertex="1" connectable="0">
                    <mxGeometry x="0.2026" relative="1" as="geometry">
                        <mxPoint x="101.6" y="-7.98" as="offset"/>
                    </mxGeometry>
                </mxCell>
                <mxCell id="25" value="" style="endArrow=classic;html=1;exitX=1;exitY=0.5;exitDx=0;exitDy=0;entryX=0;entryY=0.5;entryDx=0;entryDy=0;entryPerimeter=0;" parent="1" source="2" target="5" edge="1">
                    <mxGeometry width="50" height="50" relative="1" as="geometry">
                        <mxPoint x="467.3600000000001" y="515.4799999999998" as="sourcePoint"/>
                        <mxPoint x="644" y="517.9999999999998" as="targetPoint"/>
                    </mxGeometry>
                </mxCell>
                <mxCell id="26" value="Update current rank data" style="edgeLabel;html=1;align=center;verticalAlign=middle;resizable=0;points=[];" parent="25" vertex="1" connectable="0">
                    <mxGeometry x="-0.1543" y="-2" relative="1" as="geometry">
                        <mxPoint x="14.73" y="-1.4799999999999998" as="offset"/>
                    </mxGeometry>
                </mxCell>
                <mxCell id="28" value="" style="endArrow=classic;html=1;entryX=1;entryY=0.5;entryDx=0;entryDy=0;startArrow=none;startFill=0;" parent="1" source="2" target="27" edge="1">
                    <mxGeometry width="50" height="50" relative="1" as="geometry">
                        <mxPoint x="405.71572875253787" y="464.71572875253787" as="sourcePoint"/>
                        <mxPoint x="204" y="463" as="targetPoint"/>
                    </mxGeometry>
                </mxCell>
                <mxCell id="29" value="Inform" style="edgeLabel;html=1;align=center;verticalAlign=middle;resizable=0;points=[];" parent="28" vertex="1" connectable="0">
                    <mxGeometry x="0.323" y="3" relative="1" as="geometry">
                        <mxPoint x="16" y="-3" as="offset"/>
                    </mxGeometry>
                </mxCell>
                <mxCell id="30" value="Actor" style="shape=umlActor;verticalLabelPosition=bottom;verticalAlign=top;html=1;outlineConnect=0;" parent="1" vertex="1">
                    <mxGeometry x="164" y="443" width="30" height="60" as="geometry"/>
                </mxCell>
            </root>
        </mxGraphModel>
    </diagram>
</mxfile>